<mxfile host="Electron" agent="Mozilla/5.0 (Windows NT 10.0; Win64; x64) AppleWebKit/537.36 (KHTML, like Gecko) draw.io/25.0.2 Chrome/128.0.6613.186 Electron/32.2.5 Safari/537.36" version="25.0.2">
  <diagram id="C5RBs43oDa-KdzZeNtuy" name="Page-1">
    <mxGraphModel dx="2307" dy="2035" grid="1" gridSize="10" guides="1" tooltips="1" connect="1" arrows="1" fold="1" page="1" pageScale="1" pageWidth="827" pageHeight="1169" math="0" shadow="0">
      <root>
        <mxCell id="WIyWlLk6GJQsqaUBKTNV-0" />
        <mxCell id="WIyWlLk6GJQsqaUBKTNV-1" parent="WIyWlLk6GJQsqaUBKTNV-0" />
        <mxCell id="zkfFHV4jXpPFQw0GAbJ--0" value="Person" style="swimlane;fontStyle=2;align=center;verticalAlign=top;childLayout=stackLayout;horizontal=1;startSize=26;horizontalStack=0;resizeParent=1;resizeLast=0;collapsible=1;marginBottom=0;rounded=0;shadow=0;strokeWidth=1;" parent="WIyWlLk6GJQsqaUBKTNV-1" vertex="1">
          <mxGeometry x="220" y="120" width="160" height="170" as="geometry">
            <mxRectangle x="230" y="140" width="160" height="26" as="alternateBounds" />
          </mxGeometry>
        </mxCell>
        <mxCell id="zkfFHV4jXpPFQw0GAbJ--1" value="Name" style="text;align=left;verticalAlign=top;spacingLeft=4;spacingRight=4;overflow=hidden;rotatable=0;points=[[0,0.5],[1,0.5]];portConstraint=eastwest;" parent="zkfFHV4jXpPFQw0GAbJ--0" vertex="1">
          <mxGeometry y="26" width="160" height="26" as="geometry" />
        </mxCell>
        <mxCell id="zkfFHV4jXpPFQw0GAbJ--2" value="nationality&#xa;" style="text;align=left;verticalAlign=top;spacingLeft=4;spacingRight=4;overflow=hidden;rotatable=0;points=[[0,0.5],[1,0.5]];portConstraint=eastwest;rounded=0;shadow=0;html=0;" parent="zkfFHV4jXpPFQw0GAbJ--0" vertex="1">
          <mxGeometry y="52" width="160" height="26" as="geometry" />
        </mxCell>
        <mxCell id="sWfVRmqd_Di_RNYYss13-30" value="" style="edgeStyle=orthogonalEdgeStyle;rounded=0;orthogonalLoop=1;jettySize=auto;html=1;exitX=0.5;exitY=1;exitDx=0;exitDy=0;" parent="WIyWlLk6GJQsqaUBKTNV-1" source="zkfFHV4jXpPFQw0GAbJ--17" target="sWfVRmqd_Di_RNYYss13-25" edge="1">
          <mxGeometry relative="1" as="geometry">
            <mxPoint x="760" y="310" as="sourcePoint" />
            <Array as="points">
              <mxPoint x="870" y="258" />
              <mxPoint x="870" y="586" />
            </Array>
          </mxGeometry>
        </mxCell>
        <mxCell id="sWfVRmqd_Di_RNYYss13-34" value="fights in&amp;nbsp;" style="edgeLabel;html=1;align=center;verticalAlign=middle;resizable=0;points=[];" parent="sWfVRmqd_Di_RNYYss13-30" vertex="1" connectable="0">
          <mxGeometry x="-0.19" y="-2" relative="1" as="geometry">
            <mxPoint x="-28" y="-4" as="offset" />
          </mxGeometry>
        </mxCell>
        <mxCell id="zkfFHV4jXpPFQw0GAbJ--17" value="Unit" style="swimlane;fontStyle=0;align=center;verticalAlign=top;childLayout=stackLayout;horizontal=1;startSize=26;horizontalStack=0;resizeParent=1;resizeLast=0;collapsible=1;marginBottom=0;rounded=0;shadow=0;strokeWidth=1;" parent="WIyWlLk6GJQsqaUBKTNV-1" vertex="1">
          <mxGeometry x="790" y="120" width="160" height="140" as="geometry">
            <mxRectangle x="550" y="140" width="160" height="26" as="alternateBounds" />
          </mxGeometry>
        </mxCell>
        <mxCell id="zkfFHV4jXpPFQw0GAbJ--18" value="name " style="text;align=left;verticalAlign=top;spacingLeft=4;spacingRight=4;overflow=hidden;rotatable=0;points=[[0,0.5],[1,0.5]];portConstraint=eastwest;" parent="zkfFHV4jXpPFQw0GAbJ--17" vertex="1">
          <mxGeometry y="26" width="160" height="22" as="geometry" />
        </mxCell>
        <mxCell id="zkfFHV4jXpPFQw0GAbJ--20" value="army " style="text;align=left;verticalAlign=top;spacingLeft=4;spacingRight=4;overflow=hidden;rotatable=0;points=[[0,0.5],[1,0.5]];portConstraint=eastwest;rounded=0;shadow=0;html=0;" parent="zkfFHV4jXpPFQw0GAbJ--17" vertex="1">
          <mxGeometry y="48" width="160" height="26" as="geometry" />
        </mxCell>
        <mxCell id="zkfFHV4jXpPFQw0GAbJ--26" value="" style="endArrow=open;shadow=0;strokeWidth=1;rounded=0;curved=0;endFill=1;edgeStyle=elbowEdgeStyle;elbow=vertical;entryX=0.308;entryY=0.049;entryDx=0;entryDy=0;entryPerimeter=0;" parent="WIyWlLk6GJQsqaUBKTNV-1" edge="1" target="sWfVRmqd_Di_RNYYss13-96">
          <mxGeometry x="0.5" y="41" relative="1" as="geometry">
            <mxPoint x="380" y="188.23" as="sourcePoint" />
            <mxPoint x="470" y="188" as="targetPoint" />
            <mxPoint x="-40" y="32" as="offset" />
            <Array as="points">
              <mxPoint x="390" y="188.23" />
            </Array>
          </mxGeometry>
        </mxCell>
        <mxCell id="zkfFHV4jXpPFQw0GAbJ--28" value="1...n" style="resizable=0;align=right;verticalAlign=bottom;labelBackgroundColor=none;fontSize=12;" parent="zkfFHV4jXpPFQw0GAbJ--26" connectable="0" vertex="1">
          <mxGeometry x="1" relative="1" as="geometry">
            <mxPoint x="-7" y="-12" as="offset" />
          </mxGeometry>
        </mxCell>
        <mxCell id="sWfVRmqd_Di_RNYYss13-37" value="" style="edgeStyle=orthogonalEdgeStyle;rounded=0;orthogonalLoop=1;jettySize=auto;html=1;exitX=0.061;exitY=0.746;exitDx=0;exitDy=0;exitPerimeter=0;" parent="WIyWlLk6GJQsqaUBKTNV-1" edge="1">
          <mxGeometry relative="1" as="geometry">
            <mxPoint x="220.76000000000022" y="248.39599999999996" as="sourcePoint" />
            <mxPoint x="101" y="370" as="targetPoint" />
            <Array as="points">
              <mxPoint x="221" y="257" />
              <mxPoint x="102" y="257" />
            </Array>
          </mxGeometry>
        </mxCell>
        <mxCell id="Up6PIdl-GRcJgjslwMBE-0" value="occupation before" style="text;align=left;verticalAlign=top;spacingLeft=4;spacingRight=4;overflow=hidden;rotatable=0;points=[[0,0.5],[1,0.5]];portConstraint=eastwest;rounded=0;shadow=0;html=0;" parent="WIyWlLk6GJQsqaUBKTNV-1" vertex="1">
          <mxGeometry x="220" y="200" width="160" height="26" as="geometry" />
        </mxCell>
        <mxCell id="sWfVRmqd_Di_RNYYss13-2" value="plane" style="swimlane;fontStyle=2;align=center;verticalAlign=top;childLayout=stackLayout;horizontal=1;startSize=26;horizontalStack=0;resizeParent=1;resizeLast=0;collapsible=1;marginBottom=0;rounded=0;shadow=0;strokeWidth=1;" parent="WIyWlLk6GJQsqaUBKTNV-1" vertex="1">
          <mxGeometry x="-120" y="120" width="160" height="180" as="geometry">
            <mxRectangle x="230" y="140" width="160" height="26" as="alternateBounds" />
          </mxGeometry>
        </mxCell>
        <mxCell id="sWfVRmqd_Di_RNYYss13-3" value="Name" style="text;align=left;verticalAlign=top;spacingLeft=4;spacingRight=4;overflow=hidden;rotatable=0;points=[[0,0.5],[1,0.5]];portConstraint=eastwest;" parent="sWfVRmqd_Di_RNYYss13-2" vertex="1">
          <mxGeometry y="26" width="160" height="26" as="geometry" />
        </mxCell>
        <mxCell id="sWfVRmqd_Di_RNYYss13-4" value="class" style="text;align=left;verticalAlign=top;spacingLeft=4;spacingRight=4;overflow=hidden;rotatable=0;points=[[0,0.5],[1,0.5]];portConstraint=eastwest;rounded=0;shadow=0;html=0;" parent="sWfVRmqd_Di_RNYYss13-2" vertex="1">
          <mxGeometry y="52" width="160" height="26" as="geometry" />
        </mxCell>
        <mxCell id="sWfVRmqd_Di_RNYYss13-5" value="number produced" style="text;align=left;verticalAlign=top;spacingLeft=4;spacingRight=4;overflow=hidden;rotatable=0;points=[[0,0.5],[1,0.5]];portConstraint=eastwest;rounded=0;shadow=0;html=0;" parent="sWfVRmqd_Di_RNYYss13-2" vertex="1">
          <mxGeometry y="78" width="160" height="26" as="geometry" />
        </mxCell>
        <mxCell id="l-y_-PNztlHvs0fK7czX-16" value="type" style="text;align=left;verticalAlign=top;spacingLeft=4;spacingRight=4;overflow=hidden;rotatable=0;points=[[0,0.5],[1,0.5]];portConstraint=eastwest;rounded=0;shadow=0;html=0;" parent="sWfVRmqd_Di_RNYYss13-2" vertex="1">
          <mxGeometry y="104" width="160" height="26" as="geometry" />
        </mxCell>
        <mxCell id="l-y_-PNztlHvs0fK7czX-17" value="crew number" style="text;align=left;verticalAlign=top;spacingLeft=4;spacingRight=4;overflow=hidden;rotatable=0;points=[[0,0.5],[1,0.5]];portConstraint=eastwest;rounded=0;shadow=0;html=0;" parent="sWfVRmqd_Di_RNYYss13-2" vertex="1">
          <mxGeometry y="130" width="160" height="26" as="geometry" />
        </mxCell>
        <mxCell id="sWfVRmqd_Di_RNYYss13-9" value="joigned&amp;nbsp;" style="text;html=1;resizable=0;points=[];;align=center;verticalAlign=middle;labelBackgroundColor=none;rounded=0;shadow=0;strokeWidth=1;fontSize=12;" parent="WIyWlLk6GJQsqaUBKTNV-1" vertex="1" connectable="0">
          <mxGeometry x="470" y="186" as="geometry">
            <mxPoint x="-7" y="-12" as="offset" />
          </mxGeometry>
        </mxCell>
        <mxCell id="sWfVRmqd_Di_RNYYss13-101" value="" style="edgeStyle=orthogonalEdgeStyle;rounded=0;orthogonalLoop=1;jettySize=auto;html=1;entryX=0.5;entryY=0;entryDx=0;entryDy=0;" parent="WIyWlLk6GJQsqaUBKTNV-1" source="sWfVRmqd_Di_RNYYss13-10" target="zkfFHV4jXpPFQw0GAbJ--0" edge="1">
          <mxGeometry relative="1" as="geometry" />
        </mxCell>
        <mxCell id="sWfVRmqd_Di_RNYYss13-10" value="Death" style="swimlane;fontStyle=2;align=center;verticalAlign=top;childLayout=stackLayout;horizontal=1;startSize=26;horizontalStack=0;resizeParent=1;resizeLast=0;collapsible=1;marginBottom=0;rounded=0;shadow=0;strokeWidth=1;" parent="WIyWlLk6GJQsqaUBKTNV-1" vertex="1">
          <mxGeometry x="220" y="-98" width="160" height="138" as="geometry">
            <mxRectangle x="230" y="140" width="160" height="26" as="alternateBounds" />
          </mxGeometry>
        </mxCell>
        <mxCell id="sWfVRmqd_Di_RNYYss13-11" value="date of death" style="text;align=left;verticalAlign=top;spacingLeft=4;spacingRight=4;overflow=hidden;rotatable=0;points=[[0,0.5],[1,0.5]];portConstraint=eastwest;" parent="sWfVRmqd_Di_RNYYss13-10" vertex="1">
          <mxGeometry y="26" width="160" height="26" as="geometry" />
        </mxCell>
        <mxCell id="sWfVRmqd_Di_RNYYss13-12" value="cause of death" style="text;align=left;verticalAlign=top;spacingLeft=4;spacingRight=4;overflow=hidden;rotatable=0;points=[[0,0.5],[1,0.5]];portConstraint=eastwest;rounded=0;shadow=0;html=0;" parent="sWfVRmqd_Di_RNYYss13-10" vertex="1">
          <mxGeometry y="52" width="160" height="26" as="geometry" />
        </mxCell>
        <mxCell id="sWfVRmqd_Di_RNYYss13-13" value="place of death " style="text;align=left;verticalAlign=top;spacingLeft=4;spacingRight=4;overflow=hidden;rotatable=0;points=[[0,0.5],[1,0.5]];portConstraint=eastwest;rounded=0;shadow=0;html=0;" parent="sWfVRmqd_Di_RNYYss13-10" vertex="1">
          <mxGeometry y="78" width="160" height="26" as="geometry" />
        </mxCell>
        <mxCell id="sWfVRmqd_Di_RNYYss13-17" value="aerial fight&#xa;" style="swimlane;fontStyle=2;align=center;verticalAlign=top;childLayout=stackLayout;horizontal=1;startSize=26;horizontalStack=0;resizeParent=1;resizeLast=0;collapsible=1;marginBottom=0;rounded=0;shadow=0;strokeWidth=1;" parent="WIyWlLk6GJQsqaUBKTNV-1" vertex="1">
          <mxGeometry x="221" y="654" width="160" height="140" as="geometry">
            <mxRectangle x="230" y="140" width="160" height="26" as="alternateBounds" />
          </mxGeometry>
        </mxCell>
        <mxCell id="sWfVRmqd_Di_RNYYss13-18" value="date&#xa;" style="text;align=left;verticalAlign=top;spacingLeft=4;spacingRight=4;overflow=hidden;rotatable=0;points=[[0,0.5],[1,0.5]];portConstraint=eastwest;" parent="sWfVRmqd_Di_RNYYss13-17" vertex="1">
          <mxGeometry y="26" width="160" height="26" as="geometry" />
        </mxCell>
        <mxCell id="sWfVRmqd_Di_RNYYss13-19" value="outcome" style="text;align=left;verticalAlign=top;spacingLeft=4;spacingRight=4;overflow=hidden;rotatable=0;points=[[0,0.5],[1,0.5]];portConstraint=eastwest;rounded=0;shadow=0;html=0;" parent="sWfVRmqd_Di_RNYYss13-17" vertex="1">
          <mxGeometry y="52" width="160" height="26" as="geometry" />
        </mxCell>
        <mxCell id="sWfVRmqd_Di_RNYYss13-20" value="participants" style="text;align=left;verticalAlign=top;spacingLeft=4;spacingRight=4;overflow=hidden;rotatable=0;points=[[0,0.5],[1,0.5]];portConstraint=eastwest;rounded=0;shadow=0;html=0;" parent="sWfVRmqd_Di_RNYYss13-17" vertex="1">
          <mxGeometry y="78" width="160" height="26" as="geometry" />
        </mxCell>
        <mxCell id="-l5ytIGz0a9PeMOAyxSW-0" value="location" style="text;align=left;verticalAlign=top;spacingLeft=4;spacingRight=4;overflow=hidden;rotatable=0;points=[[0,0.5],[1,0.5]];portConstraint=eastwest;rounded=0;shadow=0;html=0;" parent="sWfVRmqd_Di_RNYYss13-17" vertex="1">
          <mxGeometry y="104" width="160" height="26" as="geometry" />
        </mxCell>
        <mxCell id="sWfVRmqd_Di_RNYYss13-22" value="" style="resizable=0;align=left;verticalAlign=bottom;labelBackgroundColor=none;fontSize=12;" parent="WIyWlLk6GJQsqaUBKTNV-1" connectable="0" vertex="1">
          <mxGeometry x="383" y="218" as="geometry">
            <mxPoint x="-190" y="-19" as="offset" />
          </mxGeometry>
        </mxCell>
        <mxCell id="sWfVRmqd_Di_RNYYss13-25" value="Military Theatre" style="swimlane;fontStyle=0;align=center;verticalAlign=top;childLayout=stackLayout;horizontal=1;startSize=26;horizontalStack=0;resizeParent=1;resizeLast=0;collapsible=1;marginBottom=0;rounded=0;shadow=0;strokeWidth=1;" parent="WIyWlLk6GJQsqaUBKTNV-1" vertex="1">
          <mxGeometry x="790" y="545" width="160" height="82" as="geometry">
            <mxRectangle x="550" y="140" width="160" height="26" as="alternateBounds" />
          </mxGeometry>
        </mxCell>
        <mxCell id="sWfVRmqd_Di_RNYYss13-27" value="Name" style="text;align=left;verticalAlign=top;spacingLeft=4;spacingRight=4;overflow=hidden;rotatable=0;points=[[0,0.5],[1,0.5]];portConstraint=eastwest;rounded=0;shadow=0;html=0;" parent="sWfVRmqd_Di_RNYYss13-25" vertex="1">
          <mxGeometry y="26" width="160" height="26" as="geometry" />
        </mxCell>
        <mxCell id="sWfVRmqd_Di_RNYYss13-95" value="geographical location&#xa;" style="text;align=left;verticalAlign=top;spacingLeft=4;spacingRight=4;overflow=hidden;rotatable=0;points=[[0,0.5],[1,0.5]];portConstraint=eastwest;rounded=0;shadow=0;html=0;" parent="sWfVRmqd_Di_RNYYss13-25" vertex="1">
          <mxGeometry y="52" width="160" height="26" as="geometry" />
        </mxCell>
        <mxCell id="sWfVRmqd_Di_RNYYss13-38" value="decorations " style="swimlane;fontStyle=2;align=center;verticalAlign=top;childLayout=stackLayout;horizontal=1;startSize=26;horizontalStack=0;resizeParent=1;resizeLast=0;collapsible=1;marginBottom=0;rounded=0;shadow=0;strokeWidth=1;" parent="WIyWlLk6GJQsqaUBKTNV-1" vertex="1">
          <mxGeometry x="20" y="370" width="160" height="130" as="geometry">
            <mxRectangle x="230" y="140" width="160" height="26" as="alternateBounds" />
          </mxGeometry>
        </mxCell>
        <mxCell id="sWfVRmqd_Di_RNYYss13-39" value="name" style="text;align=left;verticalAlign=top;spacingLeft=4;spacingRight=4;overflow=hidden;rotatable=0;points=[[0,0.5],[1,0.5]];portConstraint=eastwest;" parent="sWfVRmqd_Di_RNYYss13-38" vertex="1">
          <mxGeometry y="26" width="160" height="26" as="geometry" />
        </mxCell>
        <mxCell id="sWfVRmqd_Di_RNYYss13-40" value="date given" style="text;align=left;verticalAlign=top;spacingLeft=4;spacingRight=4;overflow=hidden;rotatable=0;points=[[0,0.5],[1,0.5]];portConstraint=eastwest;rounded=0;shadow=0;html=0;" parent="sWfVRmqd_Di_RNYYss13-38" vertex="1">
          <mxGeometry y="52" width="160" height="26" as="geometry" />
        </mxCell>
        <mxCell id="5RyC-knpf2imcaLPnaB5-4" value="Awarding Authority" style="text;align=left;verticalAlign=top;spacingLeft=4;spacingRight=4;overflow=hidden;rotatable=0;points=[[0,0.5],[1,0.5]];portConstraint=eastwest;rounded=0;shadow=0;html=0;" parent="sWfVRmqd_Di_RNYYss13-38" vertex="1">
          <mxGeometry y="78" width="160" height="26" as="geometry" />
        </mxCell>
        <mxCell id="5RyC-knpf2imcaLPnaB5-5" value="Decoration Type" style="text;align=left;verticalAlign=top;spacingLeft=4;spacingRight=4;overflow=hidden;rotatable=0;points=[[0,0.5],[1,0.5]];portConstraint=eastwest;rounded=0;shadow=0;html=0;" parent="sWfVRmqd_Di_RNYYss13-38" vertex="1">
          <mxGeometry y="104" width="160" height="26" as="geometry" />
        </mxCell>
        <mxCell id="sWfVRmqd_Di_RNYYss13-42" value="&lt;br style=&quot;forced-color-adjust: none; padding: 0px; margin: 0px; color: rgb(0, 0, 0); font-family: Helvetica; font-size: 12px; font-style: normal; font-variant-ligatures: normal; font-variant-caps: normal; font-weight: 400; letter-spacing: normal; orphans: 2; text-align: left; text-indent: 0px; text-transform: none; widows: 2; word-spacing: 0px; -webkit-text-stroke-width: 0px; white-space: nowrap; background-color: rgb(251, 251, 251); text-decoration-thickness: initial; text-decoration-style: initial; text-decoration-color: initial;&quot;&gt;&lt;span style=&quot;color: rgb(0, 0, 0); font-family: Helvetica; font-size: 12px; font-style: normal; font-variant-ligatures: normal; font-variant-caps: normal; font-weight: 400; letter-spacing: normal; orphans: 2; text-align: left; text-indent: 0px; text-transform: none; widows: 2; word-spacing: 0px; -webkit-text-stroke-width: 0px; white-space: nowrap; background-color: rgb(251, 251, 251); text-decoration-thickness: initial; text-decoration-style: initial; text-decoration-color: initial; display: inline !important; float: none;&quot;&gt;1&lt;/span&gt;" style="text;whiteSpace=wrap;html=1;" parent="WIyWlLk6GJQsqaUBKTNV-1" vertex="1">
          <mxGeometry x="200" y="219" width="40" height="50" as="geometry" />
        </mxCell>
        <mxCell id="sWfVRmqd_Di_RNYYss13-43" value="&lt;div&gt;0...n&lt;/div&gt;&lt;div&gt;&lt;br&gt;&lt;/div&gt;" style="text;whiteSpace=wrap;html=1;" parent="WIyWlLk6GJQsqaUBKTNV-1" vertex="1">
          <mxGeometry x="105" y="339" width="40" height="50" as="geometry" />
        </mxCell>
        <mxCell id="sWfVRmqd_Di_RNYYss13-47" value="appelation" style="swimlane;fontStyle=2;align=center;verticalAlign=top;childLayout=stackLayout;horizontal=1;startSize=26;horizontalStack=0;resizeParent=1;resizeLast=0;collapsible=1;marginBottom=0;rounded=0;shadow=0;strokeWidth=1;" parent="WIyWlLk6GJQsqaUBKTNV-1" vertex="1">
          <mxGeometry x="400.5" y="501" width="160" height="104" as="geometry">
            <mxRectangle x="230" y="140" width="160" height="26" as="alternateBounds" />
          </mxGeometry>
        </mxCell>
        <mxCell id="sWfVRmqd_Di_RNYYss13-48" value="Name" style="text;align=left;verticalAlign=top;spacingLeft=4;spacingRight=4;overflow=hidden;rotatable=0;points=[[0,0.5],[1,0.5]];portConstraint=eastwest;" parent="sWfVRmqd_Di_RNYYss13-47" vertex="1">
          <mxGeometry y="26" width="160" height="26" as="geometry" />
        </mxCell>
        <mxCell id="l-y_-PNztlHvs0fK7czX-25" value="Name type" style="text;align=left;verticalAlign=top;spacingLeft=4;spacingRight=4;overflow=hidden;rotatable=0;points=[[0,0.5],[1,0.5]];portConstraint=eastwest;" parent="sWfVRmqd_Di_RNYYss13-47" vertex="1">
          <mxGeometry y="52" width="160" height="26" as="geometry" />
        </mxCell>
        <mxCell id="sWfVRmqd_Di_RNYYss13-49" value="&#xa;" style="text;align=left;verticalAlign=top;spacingLeft=4;spacingRight=4;overflow=hidden;rotatable=0;points=[[0,0.5],[1,0.5]];portConstraint=eastwest;rounded=0;shadow=0;html=0;" parent="sWfVRmqd_Di_RNYYss13-47" vertex="1">
          <mxGeometry y="78" width="160" height="2" as="geometry" />
        </mxCell>
        <mxCell id="sWfVRmqd_Di_RNYYss13-52" value="has appelation&amp;nbsp;" style="text;html=1;align=center;verticalAlign=middle;whiteSpace=wrap;rounded=0;rotation=90;" parent="WIyWlLk6GJQsqaUBKTNV-1" vertex="1">
          <mxGeometry x="423.5" y="359" width="140" height="30" as="geometry" />
        </mxCell>
        <mxCell id="sWfVRmqd_Di_RNYYss13-54" value="" style="resizable=0;align=left;verticalAlign=bottom;labelBackgroundColor=none;fontSize=12;" parent="WIyWlLk6GJQsqaUBKTNV-1" connectable="0" vertex="1">
          <mxGeometry x="367" y="224" as="geometry">
            <mxPoint x="58" y="319" as="offset" />
          </mxGeometry>
        </mxCell>
        <mxCell id="sWfVRmqd_Di_RNYYss13-58" value="Birth" style="swimlane;fontStyle=0;childLayout=stackLayout;horizontal=1;startSize=30;horizontalStack=0;resizeParent=1;resizeParentMax=0;resizeLast=0;collapsible=1;marginBottom=0;whiteSpace=wrap;html=1;" parent="WIyWlLk6GJQsqaUBKTNV-1" vertex="1">
          <mxGeometry x="520" y="-90" width="162" height="90" as="geometry" />
        </mxCell>
        <mxCell id="sWfVRmqd_Di_RNYYss13-59" value="Place of birth" style="text;strokeColor=none;fillColor=none;align=left;verticalAlign=middle;spacingLeft=4;spacingRight=4;overflow=hidden;points=[[0,0.5],[1,0.5]];portConstraint=eastwest;rotatable=0;whiteSpace=wrap;html=1;" parent="sWfVRmqd_Di_RNYYss13-58" vertex="1">
          <mxGeometry y="30" width="162" height="30" as="geometry" />
        </mxCell>
        <mxCell id="sWfVRmqd_Di_RNYYss13-60" value="Date of birth&amp;nbsp;" style="text;strokeColor=none;fillColor=none;align=left;verticalAlign=middle;spacingLeft=4;spacingRight=4;overflow=hidden;points=[[0,0.5],[1,0.5]];portConstraint=eastwest;rotatable=0;whiteSpace=wrap;html=1;" parent="sWfVRmqd_Di_RNYYss13-58" vertex="1">
          <mxGeometry y="60" width="162" height="30" as="geometry" />
        </mxCell>
        <mxCell id="sWfVRmqd_Di_RNYYss13-62" value="brought into life&amp;nbsp;" style="text;html=1;align=center;verticalAlign=middle;whiteSpace=wrap;rounded=0;rotation=-40;" parent="WIyWlLk6GJQsqaUBKTNV-1" vertex="1">
          <mxGeometry x="390" y="30" width="120.93" height="23.51" as="geometry" />
        </mxCell>
        <mxCell id="sWfVRmqd_Di_RNYYss13-67" value="has received" style="text;html=1;align=center;verticalAlign=middle;whiteSpace=wrap;rounded=0;" parent="WIyWlLk6GJQsqaUBKTNV-1" vertex="1">
          <mxGeometry x="105" y="258" width="85" height="41" as="geometry" />
        </mxCell>
        <mxCell id="sWfVRmqd_Di_RNYYss13-96" value="&#xa;" style="text;align=left;verticalAlign=top;spacingLeft=4;spacingRight=4;overflow=hidden;rotatable=0;points=[[0,0.5],[1,0.5]];portConstraint=eastwest;rounded=0;shadow=0;html=0;" parent="WIyWlLk6GJQsqaUBKTNV-1" vertex="1">
          <mxGeometry x="510" y="196" width="160" height="26" as="geometry" />
        </mxCell>
        <mxCell id="sWfVRmqd_Di_RNYYss13-99" value="1...n" style="resizable=0;align=right;verticalAlign=bottom;labelBackgroundColor=none;fontSize=12;" parent="WIyWlLk6GJQsqaUBKTNV-1" connectable="0" vertex="1">
          <mxGeometry x="870" y="268.9966666666665" as="geometry">
            <mxPoint x="-12" y="8" as="offset" />
          </mxGeometry>
        </mxCell>
        <mxCell id="sWfVRmqd_Di_RNYYss13-102" value="killed" style="text;html=1;align=center;verticalAlign=middle;whiteSpace=wrap;rounded=0;" parent="WIyWlLk6GJQsqaUBKTNV-1" vertex="1">
          <mxGeometry x="240" y="70" width="60" height="29.51" as="geometry" />
        </mxCell>
        <mxCell id="_Twvx_DH2y2zdTPYDqsU-2" value="1...n" style="resizable=0;align=left;verticalAlign=bottom;labelBackgroundColor=none;fontSize=12;" parent="WIyWlLk6GJQsqaUBKTNV-1" connectable="0" vertex="1">
          <mxGeometry x="308" y="300.25" as="geometry">
            <mxPoint x="-5" y="8" as="offset" />
          </mxGeometry>
        </mxCell>
        <mxCell id="_Twvx_DH2y2zdTPYDqsU-3" value="&lt;br style=&quot;forced-color-adjust: none; padding: 0px; margin: 0px; color: rgb(0, 0, 0); font-family: Helvetica; font-size: 12px; font-style: normal; font-variant-ligatures: normal; font-variant-caps: normal; font-weight: 400; letter-spacing: normal; orphans: 2; text-align: left; text-indent: 0px; text-transform: none; widows: 2; word-spacing: 0px; -webkit-text-stroke-width: 0px; white-space: nowrap; background-color: rgb(251, 251, 251); text-decoration-thickness: initial; text-decoration-style: initial; text-decoration-color: initial;&quot;&gt;&lt;span style=&quot;color: rgb(0, 0, 0); font-family: Helvetica; font-size: 12px; font-style: normal; font-variant-ligatures: normal; font-variant-caps: normal; font-weight: 400; letter-spacing: normal; orphans: 2; text-align: left; text-indent: 0px; text-transform: none; widows: 2; word-spacing: 0px; -webkit-text-stroke-width: 0px; white-space: nowrap; background-color: rgb(251, 251, 251); text-decoration-thickness: initial; text-decoration-style: initial; text-decoration-color: initial; display: inline !important; float: none;&quot;&gt;1..n&lt;/span&gt;" style="text;whiteSpace=wrap;html=1;" parent="WIyWlLk6GJQsqaUBKTNV-1" vertex="1">
          <mxGeometry x="305" y="602" width="50" height="38" as="geometry" />
        </mxCell>
        <mxCell id="WztvpK1lA77HdFUlMVZW-2" value="1" style="resizable=0;align=left;verticalAlign=bottom;labelBackgroundColor=none;fontSize=12;" parent="WIyWlLk6GJQsqaUBKTNV-1" connectable="0" vertex="1">
          <mxGeometry x="383" y="204.99666666666653" as="geometry">
            <mxPoint x="-81" y="-148" as="offset" />
          </mxGeometry>
        </mxCell>
        <mxCell id="l-y_-PNztlHvs0fK7czX-1" value="1" style="text;html=1;align=center;verticalAlign=middle;whiteSpace=wrap;rounded=0;rotation=-45;" parent="WIyWlLk6GJQsqaUBKTNV-1" vertex="1">
          <mxGeometry x="470" y="-10" width="60" height="30" as="geometry" />
        </mxCell>
        <mxCell id="l-y_-PNztlHvs0fK7czX-4" value="" style="endArrow=classic;html=1;rounded=0;exitX=0;exitY=1.006;exitDx=0;exitDy=0;exitPerimeter=0;entryX=1;entryY=0;entryDx=0;entryDy=0;" parent="WIyWlLk6GJQsqaUBKTNV-1" source="sWfVRmqd_Di_RNYYss13-60" target="zkfFHV4jXpPFQw0GAbJ--0" edge="1">
          <mxGeometry width="50" height="50" relative="1" as="geometry">
            <mxPoint x="520" as="sourcePoint" />
            <mxPoint x="381.00000000000017" y="119.9959999999998" as="targetPoint" />
          </mxGeometry>
        </mxCell>
        <mxCell id="l-y_-PNztlHvs0fK7czX-2" value="1" style="text;html=1;align=center;verticalAlign=middle;whiteSpace=wrap;rounded=0;rotation=-40;" parent="WIyWlLk6GJQsqaUBKTNV-1" vertex="1">
          <mxGeometry x="360" y="79.99999999999999" width="60" height="30" as="geometry" />
        </mxCell>
        <mxCell id="l-y_-PNztlHvs0fK7czX-5" value="" style="endArrow=classic;html=1;rounded=0;exitX=0;exitY=0.5;exitDx=0;exitDy=0;entryX=1;entryY=0.5;entryDx=0;entryDy=0;" parent="WIyWlLk6GJQsqaUBKTNV-1" source="zkfFHV4jXpPFQw0GAbJ--2" target="sWfVRmqd_Di_RNYYss13-4" edge="1">
          <mxGeometry width="50" height="50" relative="1" as="geometry">
            <mxPoint x="260" y="410" as="sourcePoint" />
            <mxPoint x="70" y="186" as="targetPoint" />
            <Array as="points" />
          </mxGeometry>
        </mxCell>
        <mxCell id="l-y_-PNztlHvs0fK7czX-11" value="1..n" style="text;html=1;align=center;verticalAlign=middle;whiteSpace=wrap;rounded=0;" parent="WIyWlLk6GJQsqaUBKTNV-1" vertex="1">
          <mxGeometry x="30" y="138" width="60" height="30" as="geometry" />
        </mxCell>
        <mxCell id="sWfVRmqd_Di_RNYYss13-44" value="&#xa;" style="text;align=left;verticalAlign=top;spacingLeft=4;spacingRight=4;overflow=hidden;rotatable=0;points=[[0,0.5],[1,0.5]];portConstraint=eastwest;rounded=0;shadow=0;html=0;" parent="WIyWlLk6GJQsqaUBKTNV-1" vertex="1">
          <mxGeometry x="287" y="600" width="160" height="26" as="geometry" />
        </mxCell>
        <mxCell id="l-y_-PNztlHvs0fK7czX-15" value="1...n" style="text;html=1;align=center;verticalAlign=middle;whiteSpace=wrap;rounded=0;" parent="WIyWlLk6GJQsqaUBKTNV-1" vertex="1">
          <mxGeometry x="172" y="166" width="60" height="20" as="geometry" />
        </mxCell>
        <mxCell id="l-y_-PNztlHvs0fK7czX-18" value="" style="endArrow=classic;html=1;rounded=0;exitX=0.5;exitY=1;exitDx=0;exitDy=0;" parent="WIyWlLk6GJQsqaUBKTNV-1" source="sWfVRmqd_Di_RNYYss13-31" edge="1">
          <mxGeometry width="50" height="50" relative="1" as="geometry">
            <mxPoint x="280" y="500" as="sourcePoint" />
            <mxPoint x="300" y="654" as="targetPoint" />
          </mxGeometry>
        </mxCell>
        <mxCell id="l-y_-PNztlHvs0fK7czX-19" value="" style="endArrow=classic;html=1;rounded=0;exitX=1;exitY=0.75;exitDx=0;exitDy=0;" parent="WIyWlLk6GJQsqaUBKTNV-1" source="zkfFHV4jXpPFQw0GAbJ--0" edge="1">
          <mxGeometry width="50" height="50" relative="1" as="geometry">
            <mxPoint x="250" y="480" as="sourcePoint" />
            <mxPoint x="478" y="500" as="targetPoint" />
            <Array as="points">
              <mxPoint x="480" y="248" />
            </Array>
          </mxGeometry>
        </mxCell>
        <mxCell id="sWfVRmqd_Di_RNYYss13-31" value="has taken part in" style="text;html=1;align=center;verticalAlign=middle;whiteSpace=wrap;rounded=0;" parent="WIyWlLk6GJQsqaUBKTNV-1" vertex="1">
          <mxGeometry x="270" y="468" width="60" height="70" as="geometry" />
        </mxCell>
        <mxCell id="l-y_-PNztlHvs0fK7czX-21" value="" style="endArrow=none;html=1;rounded=0;entryX=0.5;entryY=1;entryDx=0;entryDy=0;exitX=0.5;exitY=0;exitDx=0;exitDy=0;" parent="WIyWlLk6GJQsqaUBKTNV-1" source="sWfVRmqd_Di_RNYYss13-31" target="zkfFHV4jXpPFQw0GAbJ--0" edge="1">
          <mxGeometry width="50" height="50" relative="1" as="geometry">
            <mxPoint x="250" y="480" as="sourcePoint" />
            <mxPoint x="300" y="430" as="targetPoint" />
          </mxGeometry>
        </mxCell>
        <mxCell id="l-y_-PNztlHvs0fK7czX-22" value="1" style="text;html=1;align=center;verticalAlign=middle;whiteSpace=wrap;rounded=0;" parent="WIyWlLk6GJQsqaUBKTNV-1" vertex="1">
          <mxGeometry x="380" y="227" width="30" height="20" as="geometry" />
        </mxCell>
        <mxCell id="l-y_-PNztlHvs0fK7czX-24" value="1" style="text;html=1;align=center;verticalAlign=middle;whiteSpace=wrap;rounded=0;" parent="WIyWlLk6GJQsqaUBKTNV-1" vertex="1">
          <mxGeometry x="381" y="168" width="30" height="20" as="geometry" />
        </mxCell>
        <mxCell id="l-y_-PNztlHvs0fK7czX-26" value="0...n" style="text;html=1;align=center;verticalAlign=middle;whiteSpace=wrap;rounded=0;" parent="WIyWlLk6GJQsqaUBKTNV-1" vertex="1">
          <mxGeometry x="470" y="473" width="60" height="30" as="geometry" />
        </mxCell>
        <mxCell id="l-y_-PNztlHvs0fK7czX-30" value="1" style="text;html=1;align=center;verticalAlign=middle;whiteSpace=wrap;rounded=0;" parent="WIyWlLk6GJQsqaUBKTNV-1" vertex="1">
          <mxGeometry x="300" y="100" width="40" height="20" as="geometry" />
        </mxCell>
        <mxCell id="g0CCt0YpsA2ut58Fa_BW-0" value="victories&#xa;" style="text;align=left;verticalAlign=top;spacingLeft=4;spacingRight=4;overflow=hidden;rotatable=0;points=[[0,0.5],[1,0.5]];portConstraint=eastwest;rounded=0;shadow=0;html=0;" parent="WIyWlLk6GJQsqaUBKTNV-1" vertex="1">
          <mxGeometry x="221" y="226" width="160" height="26" as="geometry" />
        </mxCell>
        <mxCell id="5RyC-knpf2imcaLPnaB5-2" value="has used&amp;nbsp;" style="text;html=1;align=center;verticalAlign=middle;whiteSpace=wrap;rounded=0;" parent="WIyWlLk6GJQsqaUBKTNV-1" vertex="1">
          <mxGeometry x="95" y="156" width="60" height="30" as="geometry" />
        </mxCell>
        <mxCell id="B_RAC88cgpjmLngAOe1S-4" value="" style="edgeStyle=orthogonalEdgeStyle;rounded=0;orthogonalLoop=1;jettySize=auto;html=1;entryX=-0.049;entryY=0.951;entryDx=0;entryDy=0;entryPerimeter=0;exitX=1;exitY=0.5;exitDx=0;exitDy=0;" edge="1" parent="WIyWlLk6GJQsqaUBKTNV-1" source="B_RAC88cgpjmLngAOe1S-0">
          <mxGeometry relative="1" as="geometry">
            <mxPoint x="707.9999999999995" y="192.00000000000045" as="sourcePoint" />
            <mxPoint x="790.1599999999999" y="192.7260000000001" as="targetPoint" />
          </mxGeometry>
        </mxCell>
        <mxCell id="B_RAC88cgpjmLngAOe1S-0" value="membership&amp;nbsp;" style="swimlane;fontStyle=0;childLayout=stackLayout;horizontal=1;startSize=30;horizontalStack=0;resizeParent=1;resizeParentMax=0;resizeLast=0;collapsible=1;marginBottom=0;whiteSpace=wrap;html=1;" vertex="1" parent="WIyWlLk6GJQsqaUBKTNV-1">
          <mxGeometry x="560" y="132" width="140" height="120" as="geometry" />
        </mxCell>
        <mxCell id="B_RAC88cgpjmLngAOe1S-1" value="begin date&amp;nbsp;" style="text;strokeColor=none;fillColor=none;align=left;verticalAlign=middle;spacingLeft=4;spacingRight=4;overflow=hidden;points=[[0,0.5],[1,0.5]];portConstraint=eastwest;rotatable=0;whiteSpace=wrap;html=1;" vertex="1" parent="B_RAC88cgpjmLngAOe1S-0">
          <mxGeometry y="30" width="140" height="30" as="geometry" />
        </mxCell>
        <mxCell id="B_RAC88cgpjmLngAOe1S-2" value="end date&amp;nbsp;" style="text;strokeColor=none;fillColor=none;align=left;verticalAlign=middle;spacingLeft=4;spacingRight=4;overflow=hidden;points=[[0,0.5],[1,0.5]];portConstraint=eastwest;rotatable=0;whiteSpace=wrap;html=1;" vertex="1" parent="B_RAC88cgpjmLngAOe1S-0">
          <mxGeometry y="60" width="140" height="30" as="geometry" />
        </mxCell>
        <mxCell id="B_RAC88cgpjmLngAOe1S-3" value="rank / role" style="text;strokeColor=none;fillColor=none;align=left;verticalAlign=middle;spacingLeft=4;spacingRight=4;overflow=hidden;points=[[0,0.5],[1,0.5]];portConstraint=eastwest;rotatable=0;whiteSpace=wrap;html=1;" vertex="1" parent="B_RAC88cgpjmLngAOe1S-0">
          <mxGeometry y="90" width="140" height="30" as="geometry" />
        </mxCell>
        <mxCell id="B_RAC88cgpjmLngAOe1S-6" value="belongs to&amp;nbsp;" style="text;html=1;align=center;verticalAlign=middle;whiteSpace=wrap;rounded=0;" vertex="1" parent="WIyWlLk6GJQsqaUBKTNV-1">
          <mxGeometry x="700" y="168" width="80" height="11" as="geometry" />
        </mxCell>
      </root>
    </mxGraphModel>
  </diagram>
</mxfile>
